<svg xmlns="http://www.w3.org/2000/svg" viewBox="0 0 360 220" role="img" aria-label="Invite besties">
  <defs>
    <linearGradient id="bg" x1="0%" y1="0%" x2="100%" y2="100%">
      <stop offset="0%" stop-color="#ffe8f2"/>
      <stop offset="55%" stop-color="#fff5f9"/>
      <stop offset="100%" stop-color="#fce9f1"/>
    </linearGradient>
    <linearGradient id="dressL" x1="0%" y1="0%" x2="0%" y2="100%">
      <stop offset="0%" stop-color="#ffffff"/>
      <stop offset="100%" stop-color="#f3e8ee"/>
    </linearGradient>
    <linearGradient id="dressR" x1="0%" y1="0%" x2="0%" y2="100%">
      <stop offset="0%" stop-color="#ffd6e8"/>
      <stop offset="100%" stop-color="#f7a0c4"/>
    </linearGradient>
  </defs>

  <rect width="360" height="220" rx="24" fill="url(#bg)"/>
  <ellipse cx="120" cy="200" rx="90" ry="18" fill="#f5d4e2" opacity="0.45"/>
  <ellipse cx="250" cy="200" rx="90" ry="18" fill="#f5d4e2" opacity="0.45"/>

  <path fill="#e8c4cf" d="M118 52c10-18 32-18 42 0 6 10 4 24-2 34-8 14-22 22-38 22s-30-8-38-22c-6-10-8-24-2-34z"/>
  <path fill="url(#dressL)" d="M78 168c4-36 18-58 40-62h8c22 4 36 26 40 62l6 42H72z"/>
  <path fill="#c9a8b4" d="M92 78c8-22 28-34 48-34s40 12 48 34c-10-6-22-10-36-10s-26 4-36 10z"/>

  <path fill="#e8b8cc" d="M228 50c10-18 34-18 44 2 6 12 2 28-6 38-10 16-26 24-44 24s-34-8-44-24c-8-10-12-26-6-38 6-14 22-22 38-22 4 0 8 0 12 2z"/>
  <path fill="url(#dressR)" d="M188 168c6-38 22-60 46-64h8c24 4 40 26 46 64l4 42H184z"/>
  <path fill="#b8899a" d="M204 76c10-20 30-30 50-28 18 2 32 14 38 32-12-8-26-12-42-12s-30 4-42 12c-2-8-4-16-4-24z"/>

  <path fill="none" stroke="#f47fa8" stroke-width="5" stroke-linecap="round" d="M152 118 Q180 108 208 118"/>
  <circle cx="180" cy="112" r="10" fill="#fff" stroke="#f47fa8" stroke-width="3"/>
  <path fill="#ff9ec4" opacity="0.55" d="M300 48c8-14 28-10 28 8 0 18-28 36-28 36s-28-18-28-36c0-18 20-22 28-8z"/>
</svg>
